:FULLY-SPECIFIED
:FORCE-ALL-JOINTS-BE-3DOF
:DEGREES
510
root 5.6908 16.4133 -5.29531 -162.346 84.7259 -167.454
lfemur -24.1724 -16.89 -22.7724
ltibia 50.2395 0 0
lfoot -26.0838 -5.56796 0
ltoes 10.5126 0 0
rfemur -59.129 7.06511 6.50821
rtibia 63.1899 0 0
rfoot 9.90679 9.39109 0
rtoes -16.9813 0 0
lowerback 8.07841 -0.118699 -1.06017
upperback 1.03952 -0.111562 2.35362
thorax -3.45116 -0.0101069 3.03454
lowerneck -8.99505 -11.6573 -3.40292
upperneck 11.2226 -15.5222 2.3857
head 5.27235 -7.56534 0.127982
lclavicle 7.21789e-15 4.92454e-15 0
lhumerus -47.3849 -35.4016 117.841
lradius 56.6673 0 0
lwrist 5.64906 0 0
lhand 8.27549 0.2133 0
lfingers 7.12502 0 0
lthumb 33.4898 27.1186 0
rclavicle 7.21789e-15 4.92454e-15 0
rhumerus -23.266 47.6408 -81.4641
rradius 110.03 0 0
rwrist 0.564719 0 0
rhand 11.662 -11.4187 0
rfingers 7.12502 0 0
rthumb 36.6958 -757.504 0
511
root 5.69452 16.4131 -5.26361 -162.031 85.1307 -167.156
lfemur -24.1047 -16.7108 -22.8306
ltibia 50.1967 0 0
lfoot -26.2001 -5.46521 0
ltoes 10.551 0 0
rfemur -59.184 7.03863 6.57081
rtibia 63.0533 0 0
rfoot 9.90587 9.60194 0
rtoes -17.175 0 0
lowerback 8.06292 -0.156108 -1.09268
upperback 1.03502 -0.162461 2.3651
thorax -3.44476 -0.0355079 3.06699
lowerneck -8.9981 -11.7064 -3.43268
upperneck 11.2787 -15.5911 2.41304
head 5.2918 -7.59689 0.136248
lclavicle 7.03403e-15 4.84701e-15 0
lhumerus -47.2488 -35.5023 117.803
lradius 56.6792 0 0
lwrist 5.69198 0 0
lhand 8.2572 0.200675 0
lfingers 7.12502 0 0
lthumb 33.4724 27.1103 0
rclavicle 7.03403e-15 4.84701e-15 0
rhumerus -22.8666 47.5369 -81.3859
rradius 110.319 0 0
rwrist 0.150025 0 0
rhand 11.5458 -11.4531 0
rfingers 7.12502 0 0
rthumb 36.584 -757.547 0
512
root 5.69806 16.4125 -5.23339 -161.644 85.5193 -166.787
lfemur -24.0348 -16.514 -22.889
ltibia 50.1462 0 0
lfoot -26.3178 -5.3488 0
ltoes 10.5861 0 0
rfemur -59.2351 6.99872 6.64486
rtibia 62.9184 0 0
rfoot 9.90286 9.81938 0
rtoes -17.3588 0 0
lowerback 8.04552 -0.193586 -1.12662
upperback 1.03064 -0.213537 2.37573
thorax -3.43697 -0.0610149 3.09934
lowerneck -9.00039 -11.7531 -3.46004
upperneck 11.3356 -15.6573 2.4412
head 5.31137 -7.62698 0.144514
lclavicle 6.82141e-15 4.76314e-15 0
lhumerus -47.1082 -35.6024 117.76
lradius 56.6899 0 0
lwrist 5.74152 0 0
lhand 8.22952 0.189005 0
lfingers 7.12502 0 0
lthumb 33.446 27.104 0
rclavicle 6.82141e-15 4.76314e-15 0
rhumerus -22.4549 47.4162 -81.3115
rradius 110.605 0 0
rwrist -0.283468 0 0
rhand 11.4142 -11.4902 0
rfingers 7.12502 0 0
rthumb 36.4575 -757.595 0
513
root 5.70142 16.4116 -5.2046 -161.187 85.8918 -166.349
lfemur -23.9627 -16.2998 -22.9474
ltibia 50.0882 0 0
lfoot -26.4368 -5.21906 0
ltoes 10.618 0 0
rfemur -59.2823 6.94565 6.73008
rtibia 62.7851 0 0
rfoot 9.89779 10.0432 0
rtoes -17.5328 0 0
lowerback 8.02625 -0.231126 -1.16197
upperback 1.02636 -0.264779 2.38551
thorax -3.42783 -0.0866214 3.1316
lowerneck -9.00195 -11.7976 -3.48505
upperneck 11.3932 -15.721 2.47015
head 5.33107 -7.65564 0.152779
lclavicle 6.58064e-15 4.67306e-15 0
lhumerus -46.963 -35.7021 117.712
lradius 56.6996 0 0
lwrist 5.79754 0 0
lhand 8.19263 0.17827 0
lfingers 7.12502 0 0
lthumb 33.4108 27.0999 0
rclavicle 6.58064e-15 4.67306e-15 0
rhumerus -22.0312 47.279 -81.2406
rradius 110.889 0 0
rwrist -0.735287 0 0
rhand 11.2676 -11.5299 0
rfingers 7.12502 0 0
rthumb 36.3166 -757.647 0
